<svg xmlns="http://www.w3.org/2000/svg" width="1536" height="672" viewBox="0 0 1536 672">
<g>
<path d="M 649.77 370.75 L 649.50 390.50 L 459.92 390.75 C355.65,390.89 270.04,390.70 269.67,390.34 C269.30,389.97 269.00,380.97 269.00,370.33 L 269.00 351.00 L 650.04 351.00 ZM 649.50 189.50 L 649.50 228.50 L 459.92 228.75 C355.65,228.89 270.04,228.70 269.67,228.34 C269.30,227.97 269.00,218.97 269.00,208.33 L 269.00 188.99 ZM 999.25 332.38 C995.87,333.37 979.46,333.87 975.75,333.10 C972.45,332.41 970.16,331.02 966.53,327.50 C963.06,324.14 957.47,315.04 950.94,302.12 C944.07,288.54 940.33,286.58 922.50,287.19 L 913.50 287.50 L 913.23 309.25 L 912.96 331.00 L 889.00 331.00 L 889.00 198.87 L 926.25 199.20 C955.16,199.45 964.17,199.83 966.50,200.90 C968.15,201.65 972.25,203.52 975.62,205.05 C986.32,209.91 992.25,216.75 995.63,228.11 C997.96,235.95 997.10,253.37 993.98,261.50 C990.97,269.36 980.68,279.91 974.00,281.98 C971.53,282.74 969.33,283.49 969.13,283.64 C968.55,284.06 978.78,299.07 990.42,314.87 C996.24,322.77 1001.00,329.83 1001.00,330.55 C1001.00,331.27 1000.21,332.10 999.25,332.38 ZM 1082.00 334.46 C1072.12,336.76 1062.13,336.35 1050.00,333.14 C1033.21,328.71 1019.09,320.83 1015.45,313.88 C1014.16,311.41 1014.37,310.86 1019.17,304.05 C1021.96,300.09 1024.83,296.62 1025.54,296.34 C1026.94,295.81 1032.60,298.35 1043.00,304.19 C1052.61,309.58 1060.99,312.00 1069.92,311.98 C1079.12,311.95 1084.31,309.87 1088.82,304.40 C1091.47,301.19 1092.00,299.70 1092.00,295.45 C1092.00,290.14 1091.06,288.73 1085.00,284.94 C1081.73,282.90 1069.33,278.65 1060.50,276.54 C1052.61,274.66 1044.20,272.36 1039.00,270.65 C1034.42,269.14 1025.98,260.70 1023.29,254.93 C1019.82,247.50 1018.41,235.48 1019.98,226.79 C1020.71,222.78 1022.13,218.10 1023.14,216.39 C1026.27,211.13 1034.77,203.98 1041.59,200.89 C1054.43,195.06 1077.80,195.13 1093.50,201.03 C1110.35,207.36 1114.83,210.57 1113.60,215.45 C1112.85,218.43 1104.81,232.00 1103.78,232.00 C1103.39,232.00 1100.46,230.83 1097.28,229.39 C1091.74,226.89 1089.00,225.72 1082.56,223.07 C1078.32,221.34 1063.38,219.82 1058.17,220.60 C1054.86,221.10 1052.75,222.25 1049.87,225.13 C1046.52,228.48 1046.00,229.61 1046.00,233.51 C1046.00,241.15 1051.63,247.14 1061.00,249.50 C1062.38,249.84 1064.40,250.49 1065.50,250.92 C1069.66,252.59 1074.71,254.00 1076.57,254.03 C1080.04,254.07 1091.34,258.42 1099.11,262.71 C1108.56,267.91 1115.38,275.17 1117.49,282.28 C1119.47,288.93 1119.49,300.97 1117.53,303.56 C1116.72,304.63 1116.05,306.66 1116.03,308.08 C1115.96,313.61 1104.51,326.34 1097.03,329.18 C1095.66,329.70 1093.17,330.76 1091.52,331.54 C1089.86,332.31 1085.57,333.63 1082.00,334.46 ZM 447.77 290.25 L 447.50 309.50 L 268.00 310.01 L 268.00 271.00 L 448.04 271.00 ZM 649.00 271.00 L 649.00 308.95 L 610.25 309.23 C588.94,309.38 551.81,309.38 527.75,309.24 L 484.00 308.98 L 484.00 271.00 ZM 736.23 305.25 L 735.97 331.00 L 714.00 331.00 L 714.00 200.00 L 754.75 199.82 C777.16,199.72 797.97,199.63 801.00,199.62 L 806.50 199.60 L 806.78 210.80 L 807.07 222.00 L 737.96 222.00 L 738.23 240.75 L 738.50 259.50 L 769.79 259.76 L 801.07 260.03 L 800.79 269.26 L 800.50 278.50 L 736.50 279.50 ZM 1192.50 220.50 L 1191.98 333.00 L 1169.00 333.00 L 1168.77 327.75 C1168.64,324.86 1168.53,317.77 1168.52,312.00 C1168.51,306.23 1168.39,283.61 1168.25,261.75 L 1168.00 222.00 L 1127.00 222.00 L 1127.00 200.00 L 1235.00 200.00 L 1235.00 219.96 L 1213.75 220.23 ZM 855.28 328.75 C854.80,330.93 854.41,331.00 842.89,331.00 C836.35,331.00 830.99,330.89 830.97,330.75 C830.95,330.61 830.69,301.17 830.39,265.31 L 829.84 200.12 L 841.67 199.81 C848.18,199.64 853.91,199.82 854.41,200.21 C855.34,200.94 856.19,324.68 855.28,328.75 ZM 919.00 267.14 C922.03,267.49 930.80,267.69 938.50,267.59 C952.06,267.40 952.69,267.30 958.63,264.24 C962.32,262.35 966.09,259.41 968.11,256.86 C971.38,252.73 971.46,252.41 971.48,242.99 C971.50,234.05 971.30,233.09 968.81,229.82 C967.33,227.88 964.63,225.74 962.81,225.07 C960.99,224.40 957.24,222.99 954.48,221.93 C950.21,220.29 946.84,220.00 931.84,220.00 L 914.22 220.00 L 913.76 223.25 C913.51,225.04 913.34,235.50 913.40,246.50 L 913.50 266.50 ZM 806.00 463.11 C806.00,465.90 805.58,467.00 804.50,467.00 C803.24,467.00 803.00,464.83 803.00,453.50 L 803.00 440.00 L 811.39 440.00 C821.42,440.00 823.84,441.37 824.67,447.56 C825.12,450.95 824.77,452.12 822.46,454.87 L 819.71 458.14 L 821.85 461.95 C824.45,466.58 824.49,467.01 822.25,466.97 C821.27,466.95 819.31,464.97 817.79,462.47 C815.56,458.80 814.55,458.00 812.12,458.00 C807.05,458.00 806.00,458.88 806.00,463.11 ZM 904.25 465.75 C904.02,466.44 902.97,467.00 901.92,467.00 C900.12,467.00 900.00,466.12 900.00,452.43 C900.00,439.09 900.15,437.88 901.75,438.19 C903.10,438.44 903.57,439.70 903.80,443.68 L 904.10 448.85 L 906.84 447.28 C910.22,445.34 915.94,446.17 918.48,448.98 C921.42,452.23 921.58,458.91 918.81,463.00 C916.80,465.96 915.77,466.55 912.14,466.81 C909.64,466.99 907.19,466.58 906.26,465.81 C905.01,464.78 904.59,464.76 904.25,465.75 ZM 777.14 465.75 C770.67,469.58 764.04,465.51 763.25,457.22 C762.85,453.10 763.16,451.93 765.28,449.46 C767.33,447.08 768.56,446.56 772.14,446.56 C774.54,446.56 777.29,446.94 778.25,447.39 C779.80,448.12 780.00,447.62 780.00,443.11 C780.00,439.23 780.36,438.00 781.50,438.00 C781.60,438.00 781.70,438.00 781.79,437.99 C782.04,437.98 782.24,437.98 782.41,438.05 C783.22,438.41 783.19,440.66 783.40,453.75 C783.59,465.71 783.45,467.00 781.89,467.00 C780.94,467.00 779.96,466.44 779.71,465.75 C779.35,464.75 778.84,464.75 777.14,465.75 ZM 669.20 463.95 C663.98,469.17 655.99,467.75 652.49,460.99 C650.62,457.37 650.60,454.67 652.42,451.15 C654.80,446.55 661.54,444.61 666.30,447.16 C670.16,449.22 671.30,451.08 671.78,456.04 C672.20,460.44 671.95,461.20 669.20,463.95 ZM 481.00 460.72 C481.00,465.64 480.67,467.00 479.50,467.00 C478.26,467.00 478.00,465.17 478.00,456.50 C478.00,448.11 478.28,446.00 479.42,446.00 C480.20,446.00 481.00,446.51 481.21,447.14 C481.50,448.00 482.13,448.00 483.73,447.14 C486.69,445.56 490.15,445.71 492.75,447.54 C494.73,448.92 495.25,448.92 497.92,447.54 C502.19,445.33 505.73,445.64 508.55,448.45 C510.75,450.66 511.00,451.74 511.00,459.03 C511.00,466.22 510.80,467.11 509.25,466.81 C507.80,466.54 507.45,465.19 507.20,459.02 C506.89,451.13 506.24,450.04 501.90,450.02 C497.61,449.99 496.00,452.80 496.00,460.33 C496.00,465.27 495.65,467.00 494.65,467.00 C493.70,467.00 493.12,464.98 492.72,460.25 C491.93,450.96 491.43,450.00 487.45,450.00 C482.73,450.00 481.00,452.88 481.00,460.72 ZM 1174.41 465.10 C1171.77,468.02 1163.65,467.74 1160.52,464.61 C1157.24,461.33 1156.30,455.69 1158.33,451.44 C1160.40,447.10 1166.27,445.04 1170.98,446.99 C1174.75,448.55 1178.00,452.49 1178.00,455.50 C1178.00,458.00 1174.58,458.97 1165.71,458.99 C1161.25,459.00 1161.00,459.13 1161.99,460.99 C1163.39,463.59 1167.61,464.59 1171.32,463.18 C1175.13,461.75 1176.61,462.66 1174.41,465.10 ZM 592.53 466.55 C590.62,467.35 588.71,467.94 588.28,467.86 C584.20,467.15 582.91,466.52 580.55,464.05 C573.87,457.07 578.76,446.00 588.53,446.00 C591.79,446.00 598.22,452.47 597.81,455.34 C597.54,457.25 596.59,457.61 589.75,458.40 C585.49,458.90 582.00,459.68 582.00,460.13 C582.00,460.58 583.13,461.69 584.50,462.59 C586.87,464.15 588.39,464.12 593.75,462.46 C597.58,461.28 596.51,464.89 592.53,466.55 ZM 367.86 465.38 C366.59,466.27 363.65,467.00 361.32,467.00 C357.98,467.00 356.54,466.42 354.54,464.26 C345.72,454.74 355.77,441.29 366.71,447.97 C369.84,449.87 372.52,455.59 371.07,457.25 C370.70,457.66 366.96,458.28 362.75,458.64 C355.70,459.23 355.16,459.43 356.07,461.13 C357.40,463.62 361.69,464.56 365.38,463.16 C369.26,461.70 370.95,463.22 367.86,465.38 ZM 1079.07 465.96 C1078.00,466.53 1075.35,467.00 1073.17,467.00 C1069.89,467.00 1068.68,466.39 1066.10,463.47 C1056.77,452.83 1070.65,439.56 1080.65,449.56 C1082.34,451.25 1083.03,452.91 1082.81,454.76 C1082.53,457.20 1081.97,457.57 1077.50,458.26 C1074.75,458.68 1071.26,458.81 1069.75,458.54 C1066.47,457.96 1066.23,459.23 1069.10,462.10 C1071.20,464.20 1075.04,464.37 1079.25,462.55 C1081.74,461.46 1081.57,464.62 1079.07,465.96 ZM 467.75 466.74 C465.96,466.67 463.38,466.91 462.00,467.27 C458.87,468.08 455.46,466.73 454.07,464.12 C451.36,459.06 454.68,455.00 461.53,455.00 C466.49,455.00 468.22,453.18 465.92,450.40 C464.60,448.82 460.46,448.84 456.75,450.45 C455.49,451.00 455.00,450.76 455.00,449.58 C455.00,445.63 464.90,444.80 468.55,448.45 C470.74,450.65 471.00,451.75 471.00,458.88 L 471.00 466.86 ZM 845.86 465.38 C844.59,466.27 841.68,467.00 839.38,467.00 C835.86,467.00 834.73,466.45 832.10,463.47 C824.11,454.36 833.34,441.99 844.02,447.51 C847.40,449.26 849.00,451.80 849.00,455.43 C849.00,457.91 848.77,458.00 842.75,458.07 C839.31,458.11 835.71,458.45 834.74,458.84 C833.13,459.48 833.11,459.71 834.55,461.77 C836.31,464.27 842.68,464.92 844.80,462.80 C845.66,461.94 846.31,461.91 847.08,462.68 C847.86,463.46 847.52,464.22 845.86,465.38 ZM 893.00 458.35 L 893.00 466.56 L 886.06 466.77 C878.79,466.99 876.80,466.10 875.51,462.03 C874.13,457.68 877.13,455.38 884.99,454.77 C889.36,454.43 890.33,451.57 886.65,449.89 C884.85,449.07 883.31,449.05 881.10,449.82 C877.41,451.10 875.68,449.44 878.54,447.35 C881.32,445.32 887.33,445.68 890.37,448.07 C892.83,450.01 893.00,450.68 893.00,458.35 ZM 725.55 465.91 C725.18,466.51 723.18,467.00 721.10,467.00 C716.69,467.00 714.00,464.63 714.00,460.74 C714.00,456.87 716.48,455.00 721.60,455.00 C726.42,455.00 728.21,453.17 726.01,450.51 C724.90,449.18 721.73,449.06 717.10,450.18 C714.59,450.78 714.93,448.35 717.52,447.17 C721.51,445.35 726.73,445.73 729.00,448.00 C730.69,449.69 731.00,451.33 731.00,458.50 C731.00,467.04 730.15,468.75 727.31,465.91 C726.53,465.13 726.04,465.13 725.55,465.91 ZM 1025.30 463.83 C1023.76,465.46 1021.15,467.02 1019.50,467.28 C1015.61,467.91 1009.01,465.97 1007.64,463.80 C1005.99,461.18 1007.57,460.57 1011.37,462.37 C1016.06,464.60 1020.30,464.44 1022.55,461.94 C1025.15,459.07 1023.61,457.07 1017.17,454.97 C1010.65,452.84 1008.00,450.50 1008.00,446.85 C1008.00,442.26 1011.11,440.00 1017.42,440.00 C1023.74,440.00 1026.00,440.68 1026.00,442.59 C1026.00,443.64 1024.96,443.82 1021.57,443.35 C1015.06,442.46 1012.00,443.49 1012.00,446.55 C1012.00,448.59 1012.87,449.45 1016.58,451.04 C1019.10,452.12 1021.73,453.00 1022.43,453.00 C1024.04,453.00 1026.57,455.87 1027.43,458.68 C1027.91,460.28 1027.34,461.66 1025.30,463.83 ZM 310.00 461.55 C310.00,466.33 309.76,467.00 308.00,467.00 C306.10,467.00 306.00,466.33 306.00,452.96 L 306.00 438.93 L 315.75 439.21 C323.62,439.44 325.50,439.79 325.50,441.00 C325.50,442.18 323.84,442.56 317.75,442.79 L 310.00 443.08 L 310.00 452.00 L 317.07 452.00 C323.27,452.00 324.11,452.22 323.81,453.75 C323.54,455.17 322.22,455.56 316.74,455.80 L 310.00 456.09 ZM 402.76 472.75 C400.47,475.19 396.12,475.72 394.20,473.80 C392.20,471.80 392.85,470.74 395.74,471.29 C399.29,471.97 402.00,470.48 402.00,467.84 C402.00,466.68 400.20,461.53 398.00,456.38 C395.80,451.23 394.00,446.79 394.00,446.51 C394.00,446.23 394.81,446.00 395.80,446.00 C397.12,446.00 398.49,448.17 400.88,454.01 C402.68,458.42 404.51,461.81 404.93,461.54 C405.36,461.28 406.95,457.67 408.46,453.53 C410.56,447.77 411.65,446.00 413.10,446.00 C415.45,446.00 415.45,446.20 413.12,450.79 C412.09,452.83 409.81,458.10 408.05,462.50 C406.30,466.90 403.92,471.51 402.76,472.75 ZM 742.00 460.07 C742.00,466.33 741.81,467.00 740.00,467.00 C738.13,467.00 738.00,466.33 738.00,456.50 C738.00,446.67 738.13,446.00 740.00,446.00 C741.10,446.00 742.00,446.44 742.00,446.98 C742.00,447.61 742.90,447.61 744.57,446.98 C748.52,445.47 751.48,445.80 754.37,448.07 C756.84,450.02 757.00,450.66 757.00,458.57 C757.00,465.40 756.71,467.00 755.50,467.00 C754.35,467.00 753.98,465.65 753.90,461.25 C753.74,452.14 753.01,450.55 748.83,450.20 C743.40,449.74 742.00,451.77 742.00,460.07 ZM 980.73 472.75 C979.58,474.00 977.47,475.00 975.99,475.00 C972.99,475.00 972.00,474.31 972.00,472.22 C972.00,471.17 972.70,470.96 974.60,471.43 C977.71,472.22 980.00,470.59 980.00,467.58 C980.00,466.39 978.43,461.60 976.52,456.95 C972.65,447.57 972.35,446.00 974.40,446.00 C975.20,446.00 977.11,449.12 978.82,453.22 C980.48,457.20 982.21,460.56 982.67,460.71 C983.13,460.85 984.85,457.75 986.50,453.82 C989.34,447.08 992.00,443.95 992.00,447.37 C992.00,449.97 982.95,470.36 980.73,472.75 ZM 545.00 460.72 C545.00,465.64 544.67,467.00 543.50,467.00 C542.26,467.00 542.00,465.17 542.00,456.50 C542.00,448.02 542.28,446.00 543.44,446.00 C544.23,446.00 545.15,446.43 545.48,446.96 C545.85,447.57 546.96,447.52 548.46,446.84 C551.76,445.33 557.63,446.63 559.47,449.26 C560.52,450.77 561.00,453.86 561.00,459.22 C561.00,466.33 560.83,467.00 559.00,467.00 C557.18,467.00 557.00,466.33 557.00,459.70 C557.00,451.48 556.14,450.00 551.36,450.00 C546.74,450.00 545.00,452.94 545.00,460.72 ZM 681.00 460.33 C681.00,465.59 680.68,467.00 679.50,467.00 C678.26,467.00 678.00,465.17 678.00,456.50 C678.00,448.11 678.28,446.00 679.42,446.00 C680.20,446.00 681.00,446.51 681.21,447.14 C681.50,448.00 682.13,448.00 683.73,447.14 C686.94,445.43 691.49,445.76 694.14,447.91 C696.23,449.60 696.54,450.82 696.85,458.41 C697.19,466.58 697.10,467.00 695.10,467.00 C693.16,467.00 693.00,466.45 693.00,459.70 C693.00,451.52 692.13,450.00 687.46,450.00 C682.59,450.00 681.00,452.54 681.00,460.33 ZM 1121.17 465.35 C1119.11,467.21 1111.56,467.56 1108.75,465.92 C1107.79,465.36 1107.00,464.20 1107.00,463.34 C1107.00,462.22 1107.49,462.01 1108.75,462.58 C1109.71,463.02 1112.30,463.40 1114.50,463.44 C1117.80,463.49 1118.50,463.16 1118.50,461.58 C1118.50,460.16 1117.21,459.25 1113.52,458.08 C1109.61,456.84 1108.32,455.88 1107.54,453.65 C1106.66,451.14 1106.88,450.50 1109.33,448.40 C1112.28,445.85 1116.79,445.28 1120.07,447.04 C1123.49,448.87 1122.14,450.00 1116.50,450.00 C1112.65,450.00 1111.00,450.39 1111.00,451.30 C1111.00,453.17 1113.10,455.00 1115.25,455.00 C1116.27,455.00 1118.43,455.69 1120.05,456.53 C1123.54,458.33 1124.10,462.70 1121.17,465.35 ZM 1196.19 463.95 C1194.67,465.99 1193.33,466.55 1189.40,466.74 C1184.13,467.01 1181.00,465.78 1181.00,463.45 C1181.00,461.75 1183.13,461.53 1184.67,463.07 C1185.26,463.66 1187.27,464.00 1189.12,463.82 C1191.71,463.58 1192.57,462.99 1192.81,461.31 C1193.07,459.50 1192.50,459.00 1189.55,458.44 C1185.16,457.62 1181.00,454.49 1181.00,452.00 C1181.00,449.52 1185.64,446.00 1188.88,446.01 C1193.04,446.04 1196.00,447.12 1196.00,448.62 C1196.00,449.61 1194.60,450.00 1191.06,450.00 C1188.34,450.00 1185.83,450.47 1185.47,451.04 C1184.56,452.52 1186.88,455.00 1189.17,455.00 C1191.97,455.00 1196.65,457.65 1197.42,459.66 C1197.82,460.70 1197.33,462.43 1196.19,463.95 ZM 431.17 465.35 C427.76,468.43 417.00,467.01 417.00,463.48 C417.00,462.36 417.56,462.26 419.57,463.02 C423.35,464.46 427.58,464.21 429.04,462.46 C430.65,460.51 429.70,459.68 424.03,458.06 C416.82,456.01 414.95,451.76 419.63,448.07 C422.56,445.77 426.62,445.41 430.37,447.12 C434.44,448.98 432.55,450.76 427.08,450.23 C419.15,449.47 419.06,454.11 426.99,455.38 C432.74,456.30 435.06,461.82 431.17,465.35 ZM 656.56 461.78 C659.88,466.52 669.00,462.51 669.00,456.31 C669.00,453.24 664.79,449.00 661.73,449.00 C656.10,449.00 652.99,456.68 656.56,461.78 ZM 1101.01 464.49 C1099.23,466.39 1097.66,466.99 1094.58,466.97 C1089.86,466.93 1087.00,465.57 1087.00,463.34 C1087.00,462.24 1087.51,462.01 1088.75,462.55 C1092.43,464.14 1096.60,464.18 1097.89,462.63 C1099.57,460.61 1098.72,459.39 1095.13,458.68 C1093.53,458.36 1090.98,457.03 1089.46,455.72 C1087.31,453.87 1086.84,452.78 1087.32,450.84 C1088.35,446.76 1095.53,444.61 1100.07,447.04 C1103.48,448.86 1102.27,450.16 1097.75,449.53 C1089.25,448.35 1088.65,453.40 1097.05,455.43 C1100.49,456.26 1101.67,457.10 1102.42,459.24 C1103.22,461.51 1102.98,462.39 1101.01,464.49 ZM 389.92 464.59 C388.15,466.46 386.62,467.00 383.02,467.00 C377.56,467.00 373.79,464.86 375.75,462.87 C376.72,461.88 377.27,461.87 378.20,462.80 C379.87,464.47 385.50,464.30 386.96,462.54 C388.70,460.45 387.64,459.40 382.53,458.11 C372.34,455.55 373.65,445.97 384.18,446.02 C388.36,446.03 390.47,447.33 389.68,449.39 C389.18,450.70 388.63,450.79 386.61,449.87 C383.74,448.56 379.00,449.46 379.00,451.32 C379.00,453.17 381.11,455.00 383.25,455.00 C386.23,455.00 390.80,457.80 391.52,460.07 C391.98,461.53 391.49,462.91 389.92,464.59 ZM 806.78 450.25 L 807.20 455.00 L 812.54 455.00 C816.93,455.00 818.16,454.60 819.44,452.78 C823.34,447.21 820.37,443.00 812.54,443.00 C806.49,443.00 806.17,443.40 806.78,450.25 ZM 1042.80 466.80 C1041.10,468.50 1039.65,468.30 1036.63,465.93 C1034.24,464.04 1034.00,463.22 1034.00,456.90 C1034.00,451.63 1033.63,449.80 1032.50,449.36 C1031.68,449.05 1031.00,448.21 1031.00,447.50 C1031.00,446.79 1031.68,445.95 1032.50,445.64 C1033.32,445.32 1034.00,444.12 1034.00,442.96 C1034.00,440.07 1037.39,440.78 1037.82,443.76 C1038.05,445.38 1038.81,446.00 1040.57,446.00 C1043.67,446.00 1043.82,448.74 1040.75,449.18 C1038.66,449.48 1038.50,450.00 1038.50,456.50 C1038.50,463.39 1038.54,463.50 1041.25,463.82 C1044.25,464.16 1044.65,464.95 1042.80,466.80 ZM 768.63 462.14 C770.95,464.71 774.63,464.46 777.55,461.55 C780.71,458.38 780.67,454.58 777.45,451.36 C774.72,448.62 770.98,448.69 768.09,451.52 C766.20,453.36 766.53,459.82 768.63,462.14 ZM 906.10 461.61 C908.73,464.41 911.12,464.63 914.54,462.38 C916.44,461.14 917.00,459.91 917.00,456.96 C917.00,450.60 911.76,447.30 907.13,450.74 C903.55,453.41 903.08,458.39 906.10,461.61 ZM 617.99 465.04 C616.47,466.21 613.88,466.96 611.34,466.98 C607.94,467.00 606.72,466.46 604.67,464.02 C599.82,458.25 600.60,451.27 606.54,447.38 C611.13,444.38 622.62,447.78 619.25,451.15 C618.45,451.95 617.68,452.00 616.79,451.30 C609.46,445.51 600.52,455.44 607.31,461.83 C609.88,464.23 612.11,464.55 615.14,462.92 C616.25,462.33 617.91,462.13 618.82,462.49 C620.26,463.04 620.14,463.39 617.99,465.04 ZM 1149.00 462.65 C1149.00,465.85 1148.60,467.00 1147.50,467.00 C1146.25,467.00 1146.00,465.00 1146.00,455.00 L 1146.00 443.00 L 1141.50 443.00 C1138.17,443.00 1137.00,442.61 1137.00,441.50 C1137.00,440.26 1138.90,440.00 1148.08,440.00 C1156.50,440.00 1159.07,440.30 1158.76,441.25 C1158.53,441.94 1156.53,442.64 1154.31,442.80 L 1150.28 443.10 L 1149.64 450.70 C1149.29,454.88 1149.00,460.26 1149.00,462.65 ZM 969.76 465.23 C968.97,467.59 965.18,467.93 962.56,465.87 C960.23,464.04 960.00,463.20 960.00,456.54 C960.00,449.83 959.82,449.18 957.75,448.57 L 955.50 447.90 L 957.75 446.98 C959.27,446.36 960.00,445.22 960.00,443.46 C960.00,440.04 963.17,440.47 964.00,444.01 C964.41,445.79 965.35,446.59 967.31,446.82 C970.62,447.20 969.87,449.00 966.40,449.00 C963.95,449.00 963.92,449.12 964.21,456.25 C964.49,463.37 964.55,463.51 967.31,463.82 C968.85,464.00 969.96,464.63 969.76,465.23 ZM 449.78 465.15 C449.20,466.91 445.77,467.84 443.28,466.91 C440.88,466.02 440.34,464.39 439.69,456.08 C439.39,452.29 438.70,450.25 437.38,449.27 C435.61,447.96 435.60,447.83 437.25,446.89 C438.21,446.35 439.00,445.02 439.00,443.95 C439.00,441.23 442.28,441.45 443.51,444.25 C444.06,445.49 445.51,446.64 446.75,446.82 C449.89,447.27 449.56,448.80 446.25,449.18 C443.64,449.48 443.48,449.80 443.20,455.33 C442.86,461.86 443.97,464.00 447.71,464.00 C449.12,464.00 450.00,464.49 449.78,465.15 ZM 636.00 465.50 C636.00,466.54 634.95,467.00 632.54,467.00 C628.11,467.00 627.00,465.00 627.00,457.07 C627.00,452.10 626.64,450.79 625.00,449.77 C622.90,448.46 622.27,446.00 624.02,446.00 C624.59,446.00 625.48,444.88 626.00,443.50 C626.52,442.12 627.42,441.00 628.00,441.00 C628.58,441.00 629.48,442.12 630.00,443.50 C630.67,445.26 631.70,446.00 633.48,446.00 C636.97,446.00 636.77,448.78 633.25,449.18 C630.71,449.48 630.48,449.89 630.19,454.43 C629.73,461.64 630.55,464.00 633.52,464.00 C635.06,464.00 636.00,464.57 636.00,465.50 ZM 1213.76 465.25 C1213.53,465.94 1211.72,466.64 1209.74,466.81 C1205.11,467.20 1204.00,465.26 1204.00,456.81 C1204.00,451.47 1203.67,450.28 1201.91,449.17 C1200.05,448.02 1199.98,447.67 1201.25,446.18 C1202.05,445.26 1202.98,443.71 1203.32,442.75 C1204.23,440.17 1206.69,440.62 1207.41,443.50 C1207.87,445.33 1208.71,446.00 1210.52,446.00 C1214.04,446.00 1213.64,448.62 1210.00,449.35 C1207.08,449.93 1207.00,450.10 1207.00,455.77 C1207.00,462.10 1208.10,464.00 1211.78,464.00 C1213.24,464.00 1214.01,464.48 1213.76,465.25 ZM 570.00 473.00 C568.08,474.92 563.06,475.72 561.67,474.33 C559.89,472.56 561.16,471.01 564.18,471.25 C567.08,471.48 567.44,471.18 568.17,468.00 C568.61,466.08 568.69,460.34 568.35,455.25 C567.74,446.28 567.79,446.00 569.86,446.00 C571.93,446.00 572.00,446.40 572.00,458.50 C572.00,469.67 571.79,471.21 570.00,473.00 ZM 859.00 452.50 C859.00,466.33 858.91,467.00 857.00,467.00 C855.09,467.00 855.00,466.33 855.00,452.50 C855.00,438.67 855.09,438.00 857.00,438.00 C858.91,438.00 859.00,438.67 859.00,452.50 ZM 941.00 452.50 C941.00,463.92 940.72,467.00 939.67,467.00 C938.93,467.00 938.03,466.70 937.67,466.33 C937.30,465.97 937.00,459.44 937.00,451.83 C937.00,438.67 937.10,438.00 939.00,438.00 C940.91,438.00 941.00,438.67 941.00,452.50 ZM 1053.00 460.93 C1053.00,465.40 1052.64,467.00 1051.63,467.00 C1048.76,467.00 1047.78,447.40 1050.60,446.32 C1051.48,445.99 1052.59,446.33 1053.06,447.10 C1053.74,448.20 1054.17,448.23 1055.16,447.24 C1056.89,445.51 1060.00,445.69 1060.00,447.52 C1060.00,448.36 1058.90,449.47 1057.56,449.98 C1054.11,451.29 1053.00,453.97 1053.00,460.93 ZM 345.78 452.24 C345.53,464.87 345.30,466.51 343.75,466.81 C342.15,467.12 342.00,465.91 342.00,452.57 C342.00,438.60 342.08,438.00 344.03,438.00 C345.98,438.00 346.04,438.51 345.78,452.24 ZM 534.00 453.50 C534.00,466.33 533.90,467.00 532.00,467.00 C530.10,467.00 530.00,466.33 530.00,453.50 C530.00,440.67 530.10,440.00 532.00,440.00 C533.90,440.00 534.00,440.67 534.00,453.50 ZM 646.00 456.50 C646.00,466.33 645.87,467.00 644.00,467.00 C642.13,467.00 642.00,466.33 642.00,456.50 C642.00,446.67 642.13,446.00 644.00,446.00 C645.87,446.00 646.00,446.67 646.00,456.50 ZM 870.00 456.50 C870.00,466.33 869.87,467.00 868.00,467.00 C866.13,467.00 866.00,466.33 866.00,456.50 C866.00,446.67 866.13,446.00 868.00,446.00 C869.87,446.00 870.00,446.67 870.00,456.50 ZM 952.00 456.50 C952.00,466.33 951.87,467.00 950.00,467.00 C948.13,467.00 948.00,466.33 948.00,456.50 C948.00,446.67 948.13,446.00 950.00,446.00 C951.87,446.00 952.00,446.67 952.00,456.50 ZM 334.78 456.76 C335.06,466.49 334.97,467.00 333.03,467.00 C331.12,467.00 331.00,466.39 331.00,456.43 C331.00,446.90 331.17,445.89 332.75,446.19 C334.26,446.48 334.54,447.94 334.78,456.76 ZM 930.00 456.43 C930.00,465.25 929.75,467.00 928.47,467.00 C926.22,467.00 925.89,465.30 926.21,455.43 C926.46,447.88 926.77,446.47 928.25,446.19 C929.83,445.89 930.00,446.90 930.00,456.43 ZM 1161.17 453.34 C1160.87,454.89 1161.54,455.07 1166.66,454.80 C1173.60,454.44 1175.15,452.13 1169.91,449.96 C1167.22,448.85 1166.32,448.87 1164.12,450.11 C1162.69,450.91 1161.36,452.36 1161.17,453.34 ZM 1067.00 453.62 C1067.00,454.62 1068.49,455.00 1072.44,455.00 C1078.70,455.00 1080.35,453.51 1077.06,450.84 C1073.80,448.21 1067.00,450.09 1067.00,453.62 ZM 457.36 462.50 C458.61,465.75 467.00,463.54 467.00,459.96 C467.00,458.30 466.31,458.00 462.47,458.00 C457.79,458.00 456.18,459.42 457.36,462.50 ZM 582.17 453.34 C581.87,454.89 582.54,455.07 587.67,454.80 C594.27,454.46 595.43,452.66 590.75,450.04 C588.28,448.66 587.72,448.65 585.26,450.03 C583.75,450.88 582.36,452.36 582.17,453.34 ZM 833.00 453.70 C833.00,455.30 843.55,455.54 844.53,453.96 C845.69,452.08 842.83,450.00 839.08,450.00 C835.30,450.00 833.00,451.40 833.00,453.70 ZM 718.08 462.15 C719.39,464.60 724.19,464.55 726.44,462.06 C728.81,459.44 727.64,458.00 723.14,458.00 C718.58,458.00 716.69,459.55 718.08,462.15 ZM 880.01 462.51 C881.64,464.48 884.90,464.40 887.17,462.35 C890.35,459.47 889.44,458.00 884.47,458.00 C879.57,458.00 877.77,459.82 880.01,462.51 ZM 355.55 454.08 C356.33,455.35 365.73,455.24 366.53,453.96 C367.64,452.15 364.89,450.00 361.45,450.00 C358.06,450.00 354.53,452.44 355.55,454.08 ZM 334.81 439.74 C334.39,441.93 331.44,442.58 330.69,440.65 C330.00,438.83 330.79,438.00 333.24,438.00 C334.51,438.00 335.04,438.58 334.81,439.74 ZM 870.00 440.00 C870.00,441.93 868.04,442.71 866.67,441.33 C865.29,439.96 866.07,438.00 868.00,438.00 C869.33,438.00 870.00,438.67 870.00,440.00 ZM 952.00 440.00 C952.00,441.93 950.04,442.71 948.67,441.33 C947.29,439.96 948.07,438.00 950.00,438.00 C951.33,438.00 952.00,438.67 952.00,440.00 ZM 571.82 439.67 C571.24,442.68 568.00,442.40 568.00,439.33 C568.00,438.60 568.93,438.00 570.07,438.00 C571.47,438.00 572.04,438.54 571.82,439.67 ZM 645.82 439.67 C645.24,442.68 642.00,442.40 642.00,439.33 C642.00,438.60 642.93,438.00 644.07,438.00 C645.47,438.00 646.04,438.54 645.82,439.67 ZM 929.82 439.67 C929.43,441.68 927.44,442.52 926.53,441.05 C925.65,439.63 926.77,438.00 928.63,438.00 C929.51,438.00 930.01,438.70 929.82,439.67 Z" fill="rgb(72,74,75)"/>
<path d="M 1235.82 373.62 L 1235.50 377.50 L 973.36 377.75 L 711.21 378.00 L 710.82 373.96 C710.61,371.73 710.72,369.46 711.06,368.91 C711.88,367.57 1233.86,367.46 1235.20,368.80 C1235.71,369.31 1235.99,371.48 1235.82,373.62 Z" fill="rgb(101,171,168)"/>
<path d="M 650.78 292.00 L 650.50 309.50 L 566.75 309.76 C520.69,309.90 483.00,309.90 483.00,309.76 C483.00,309.62 482.76,304.77 482.47,299.00 C482.18,293.23 482.23,284.34 482.59,279.25 L 483.24 270.00 L 649.96 270.00 L 650.52 272.25 C650.82,273.49 650.94,282.38 650.78,292.00 ZM 737.03 280.03 L 736.50 331.50 L 724.24 331.78 L 711.99 332.06 L 712.24 265.28 L 712.50 198.50 L 807.50 198.50 L 807.50 222.50 L 773.25 222.76 L 739.00 223.03 L 739.00 258.00 L 769.25 258.02 C785.89,258.02 800.08,258.40 800.79,258.85 C801.73,259.45 802.00,262.32 801.79,269.58 L 801.50 279.50 ZM 649.00 271.00 L 484.00 271.00 L 484.00 308.98 L 527.75 309.24 C551.81,309.38 588.94,309.38 610.25,309.23 L 649.00 308.95 ZM 736.23 305.25 L 736.50 279.50 L 800.50 278.50 L 800.79 269.26 L 801.07 260.03 L 769.79 259.76 L 738.50 259.50 L 738.23 240.75 L 737.96 222.00 L 807.07 222.00 L 806.78 210.80 L 806.50 199.60 L 801.00 199.62 C797.97,199.63 777.16,199.72 754.75,199.82 L 714.00 200.00 L 714.00 331.00 L 735.97 331.00 ZM 1194.02 221.00 L 1193.50 333.50 L 1180.95 333.78 C1174.04,333.93 1168.08,333.74 1167.70,333.36 C1167.31,332.98 1167.00,308.00 1167.00,277.85 L 1167.00 223.04 L 1126.50 222.50 L 1125.94 217.00 C1125.64,213.98 1125.64,208.57 1125.94,205.00 L 1126.50 198.50 L 1235.50 198.50 L 1235.78 209.75 L 1236.07 221.00 ZM 1192.50 220.50 L 1235.00 219.96 L 1235.00 200.00 L 1127.00 200.00 L 1127.00 222.00 L 1168.00 222.00 L 1168.25 261.75 C1168.39,283.61 1168.51,306.23 1168.52,312.00 C1168.53,317.77 1168.64,324.86 1168.77,327.75 L 1169.00 333.00 L 1191.98 333.00 ZM 919.00 267.14 L 913.50 266.50 L 913.40 246.50 C913.34,235.50 913.51,225.04 913.76,223.25 L 914.22 220.00 L 931.84 220.00 C946.84,220.00 950.21,220.29 954.48,221.93 C957.24,222.99 960.99,224.40 962.81,225.07 C964.63,225.74 967.33,227.88 968.81,229.82 C971.30,233.09 971.50,234.05 971.48,242.99 C971.46,252.41 971.38,252.73 968.11,256.86 C966.09,259.41 962.32,262.35 958.63,264.24 C952.69,267.30 952.06,267.40 938.50,267.59 C930.80,267.69 922.03,267.49 919.00,267.14 ZM 925.75 266.30 C943.95,266.93 952.85,266.11 958.38,263.31 C968.06,258.40 970.13,254.85 970.23,242.99 C970.33,231.40 968.90,228.78 960.23,224.73 C953.68,221.66 953.38,221.62 934.30,221.18 L 915.00 220.74 L 915.00 265.93 ZM 1235.86 371.67 C1235.80,370.30 1235.55,369.15 1235.20,368.80 C1233.86,367.46 711.88,367.57 711.06,368.91 C710.72,369.46 710.61,371.73 710.82,373.96 L 710.93 375.03 L 710.67 372.86 C710.33,370.03 710.30,367.33 710.58,366.87 C711.26,365.77 1233.09,365.76 1234.81,366.86 C1235.59,367.36 1235.94,368.98 1235.86,371.67 ZM 962.30 200.11 C957.05,199.61 946.56,199.37 926.25,199.20 L 889.00 198.87 L 889.00 331.00 L 912.96 331.00 L 913.23 309.25 L 913.50 287.50 L 922.50 287.19 C940.33,286.58 944.07,288.54 950.94,302.12 C954.13,308.43 957.10,313.83 959.70,318.09 C958.34,316.17 957.12,314.55 956.59,313.99 C955.80,313.15 953.04,308.43 950.46,303.49 C947.89,298.54 944.74,293.42 943.47,292.10 C940.75,289.28 935.08,288.15 923.25,288.06 L 915.00 288.00 L 914.98 308.75 C914.98,320.16 914.60,330.08 914.16,330.78 C913.55,331.74 910.19,331.99 900.92,331.78 L 888.50 331.50 L 888.50 198.50 L 913.00 198.21 C934.10,197.96 953.36,198.74 962.30,200.11 ZM 855.11 330.25 C855.01,331.82 853.67,332.00 841.99,332.00 L 828.99 332.00 L 829.50 198.50 L 854.71 197.94 L 855.30 229.22 C855.48,238.68 855.57,254.35 855.58,270.59 C855.39,236.72 854.91,200.60 854.41,200.21 C853.91,199.82 848.18,199.64 841.67,199.81 L 829.84 200.12 L 830.39 265.31 C830.69,301.17 830.95,330.61 830.97,330.75 C830.99,330.89 836.35,331.00 842.89,331.00 C853.47,331.00 854.66,330.94 855.16,329.24 C855.14,329.64 855.13,329.98 855.11,330.25 ZM 1019.50 238.73 C1019.21,235.88 1019.07,232.93 1019.10,230.00 C1019.15,223.46 1019.53,221.91 1022.12,217.85 C1022.53,217.21 1022.96,216.57 1023.42,215.94 C1023.32,216.09 1023.23,216.24 1023.14,216.39 C1022.13,218.10 1020.71,222.78 1019.98,226.79 C1019.33,230.39 1019.19,234.56 1019.50,238.73 ZM 1118.19 302.13 C1117.61,305.44 1116.70,308.49 1115.51,310.92 C1114.87,312.21 1114.00,313.61 1112.98,315.03 C1114.82,312.35 1116.01,309.85 1116.03,308.08 C1116.05,306.66 1116.72,304.63 1117.53,303.56 C1117.78,303.23 1118.00,302.74 1118.19,302.13 ZM 986.55 212.23 C991.01,216.33 993.57,221.19 995.63,228.11 C993.64,221.42 990.76,216.30 986.55,212.23 ZM 1117.74 283.19 C1118.45,285.77 1118.83,288.77 1118.92,291.89 C1118.78,288.83 1118.38,285.71 1117.74,283.19 ZM 1031.22 207.63 C1034.49,204.84 1038.09,202.47 1041.59,200.89 C1038.26,202.40 1034.53,204.87 1031.22,207.63 ZM 1094.75 330.10 C1093.63,330.62 1092.56,331.11 1091.75,331.47 C1090.71,331.94 1088.79,332.59 1086.67,333.22 C1088.73,332.61 1090.56,331.98 1091.52,331.54 C1092.45,331.10 1093.64,330.57 1094.75,330.10 ZM 965.80 326.74 C966.06,327.02 966.30,327.27 966.53,327.50 C967.00,327.95 967.44,328.37 967.87,328.76 C967.43,328.37 966.97,327.96 966.47,327.50 C966.32,327.37 966.10,327.11 965.80,326.74 ZM 970.85 331.10 C972.43,332.13 973.94,332.72 975.75,333.10 C973.86,332.70 972.47,332.19 970.85,331.10 ZM 974.08 204.35 C972.99,203.86 971.87,203.35 970.83,202.87 C971.97,203.37 973.05,203.86 974.08,204.35 Z" fill="rgb(156,164,164)"/>
<path d="M 0.00 336.00 L 0.00 0.00 L 768.00 0.00 L 1536.00 0.00 L 1536.00 336.00 L 1536.00 672.00 L 768.00 672.00 L 0.00 672.00 L 0.00 336.00 ZM 402.76 472.75 C403.92,471.51 406.30,466.90 408.05,462.50 C409.81,458.10 412.09,452.83 413.12,450.79 C415.45,446.20 415.45,446.00 413.10,446.00 C411.65,446.00 410.56,447.77 408.46,453.53 C406.95,457.67 405.36,461.28 404.93,461.54 C404.51,461.81 402.68,458.42 400.88,454.01 C398.49,448.17 397.12,446.00 395.80,446.00 C394.81,446.00 394.00,446.23 394.00,446.51 C394.00,446.79 395.80,451.23 398.00,456.38 C400.20,461.53 402.00,466.68 402.00,467.84 C402.00,470.48 399.29,471.97 395.74,471.29 C392.85,470.74 392.20,471.80 394.20,473.80 C396.12,475.72 400.47,475.19 402.76,472.75 ZM 570.00 473.00 C571.79,471.21 572.00,469.67 572.00,458.50 C572.00,446.40 571.93,446.00 569.86,446.00 C567.79,446.00 567.74,446.28 568.35,455.25 C568.69,460.34 568.61,466.08 568.17,468.00 C567.44,471.18 567.08,471.48 564.18,471.25 C561.16,471.01 559.89,472.56 561.67,474.33 C563.06,475.72 568.08,474.92 570.00,473.00 ZM 980.73 472.75 C982.95,470.36 992.00,449.97 992.00,447.37 C992.00,443.95 989.34,447.08 986.50,453.82 C984.85,457.75 983.13,460.85 982.67,460.71 C982.21,460.56 980.48,457.20 978.82,453.22 C977.11,449.12 975.20,446.00 974.40,446.00 C972.35,446.00 972.65,447.57 976.52,456.95 C978.43,461.60 980.00,466.39 980.00,467.58 C980.00,470.59 977.71,472.22 974.60,471.43 C972.70,470.96 972.00,471.17 972.00,472.22 C972.00,474.31 972.99,475.00 975.99,475.00 C977.47,475.00 979.58,474.00 980.73,472.75 ZM 449.78 465.15 C450.00,464.49 449.12,464.00 447.71,464.00 C443.97,464.00 442.86,461.86 443.20,455.33 C443.48,449.80 443.64,449.48 446.25,449.18 C449.56,448.80 449.89,447.27 446.75,446.82 C445.51,446.64 444.06,445.49 443.51,444.25 C442.28,441.45 439.00,441.23 439.00,443.95 C439.00,445.02 438.21,446.35 437.25,446.89 C435.60,447.83 435.61,447.96 437.38,449.27 C438.70,450.25 439.39,452.29 439.69,456.08 C440.34,464.39 440.88,466.02 443.28,466.91 C445.77,467.84 449.20,466.91 449.78,465.15 ZM 467.75 466.74 L 471.00 466.86 L 471.00 458.88 C471.00,451.75 470.74,450.65 468.55,448.45 C464.90,444.80 455.00,445.63 455.00,449.58 C455.00,450.76 455.49,451.00 456.75,450.45 C460.46,448.84 464.60,448.82 465.92,450.40 C468.22,453.18 466.49,455.00 461.53,455.00 C454.68,455.00 451.36,459.06 454.07,464.12 C455.46,466.73 458.87,468.08 462.00,467.27 C463.38,466.91 465.96,466.67 467.75,466.74 ZM 592.53 466.55 C596.51,464.89 597.58,461.28 593.75,462.46 C588.39,464.12 586.87,464.15 584.50,462.59 C583.13,461.69 582.00,460.58 582.00,460.13 C582.00,459.68 585.49,458.90 589.75,458.40 C596.59,457.61 597.54,457.25 597.81,455.34 C598.22,452.47 591.79,446.00 588.53,446.00 C578.76,446.00 573.87,457.07 580.55,464.05 C582.91,466.52 584.20,467.15 588.28,467.86 C588.71,467.94 590.62,467.35 592.53,466.55 ZM 969.76 465.23 C969.96,464.63 968.85,464.00 967.31,463.82 C964.55,463.51 964.49,463.37 964.21,456.25 C963.92,449.12 963.95,449.00 966.40,449.00 C969.87,449.00 970.62,447.20 967.31,446.82 C965.35,446.59 964.41,445.79 964.00,444.01 C963.17,440.47 960.00,440.04 960.00,443.46 C960.00,445.22 959.27,446.36 957.75,446.98 L 955.50 447.90 L 957.75 448.57 C959.82,449.18 960.00,449.83 960.00,456.54 C960.00,463.20 960.23,464.04 962.56,465.87 C965.18,467.93 968.97,467.59 969.76,465.23 ZM 1025.30 463.83 C1027.34,461.66 1027.91,460.28 1027.43,458.68 C1026.57,455.87 1024.04,453.00 1022.43,453.00 C1021.73,453.00 1019.10,452.12 1016.58,451.04 C1012.87,449.45 1012.00,448.59 1012.00,446.55 C1012.00,443.49 1015.06,442.46 1021.57,443.35 C1024.96,443.82 1026.00,443.64 1026.00,442.59 C1026.00,440.68 1023.74,440.00 1017.42,440.00 C1011.11,440.00 1008.00,442.26 1008.00,446.85 C1008.00,450.50 1010.65,452.84 1017.17,454.97 C1023.61,457.07 1025.15,459.07 1022.55,461.94 C1020.30,464.44 1016.06,464.60 1011.37,462.37 C1007.57,460.57 1005.99,461.18 1007.64,463.80 C1009.01,465.97 1015.61,467.91 1019.50,467.28 C1021.15,467.02 1023.76,465.46 1025.30,463.83 ZM 1042.80 466.80 C1044.65,464.95 1044.25,464.16 1041.25,463.82 C1038.54,463.50 1038.50,463.39 1038.50,456.50 C1038.50,450.00 1038.66,449.48 1040.75,449.18 C1043.82,448.74 1043.67,446.00 1040.57,446.00 C1038.81,446.00 1038.05,445.38 1037.82,443.76 C1037.39,440.78 1034.00,440.07 1034.00,442.96 C1034.00,444.12 1033.32,445.32 1032.50,445.64 C1031.68,445.95 1031.00,446.79 1031.00,447.50 C1031.00,448.21 1031.68,449.05 1032.50,449.36 C1033.63,449.80 1034.00,451.63 1034.00,456.90 C1034.00,463.22 1034.24,464.04 1036.63,465.93 C1039.65,468.30 1041.10,468.50 1042.80,466.80 ZM 310.00 461.55 L 310.00 456.09 L 316.74 455.80 C322.22,455.56 323.54,455.17 323.81,453.75 C324.11,452.22 323.27,452.00 317.07,452.00 L 310.00 452.00 L 310.00 447.54 L 310.00 443.08 L 317.75 442.79 C323.84,442.56 325.50,442.18 325.50,441.00 C325.50,439.79 323.62,439.44 315.75,439.21 L 306.00 438.93 L 306.00 452.96 C306.00,466.33 306.10,467.00 308.00,467.00 C309.76,467.00 310.00,466.33 310.00,461.55 ZM 334.78 456.76 C334.54,447.94 334.26,446.48 332.75,446.19 C331.17,445.89 331.00,446.90 331.00,456.43 C331.00,466.39 331.12,467.00 333.03,467.00 C334.97,467.00 335.06,466.49 334.78,456.76 ZM 345.78 452.24 C346.04,438.51 345.98,438.00 344.03,438.00 C342.08,438.00 342.00,438.60 342.00,452.57 C342.00,465.91 342.15,467.12 343.75,466.81 C345.30,466.51 345.53,464.87 345.78,452.24 ZM 367.86 465.38 C370.95,463.22 369.26,461.70 365.38,463.16 C361.69,464.56 357.40,463.62 356.07,461.13 C355.16,459.43 355.70,459.23 362.75,458.64 C366.96,458.28 370.70,457.66 371.07,457.25 C372.52,455.59 369.84,449.87 366.71,447.97 C355.77,441.29 345.72,454.74 354.54,464.26 C356.54,466.42 357.98,467.00 361.32,467.00 C363.65,467.00 366.59,466.27 367.86,465.38 ZM 389.92 464.59 C391.49,462.91 391.98,461.53 391.52,460.07 C390.80,457.80 386.23,455.00 383.25,455.00 C381.11,455.00 379.00,453.17 379.00,451.32 C379.00,449.46 383.74,448.56 386.61,449.87 C388.63,450.79 389.18,450.70 389.68,449.39 C390.47,447.33 388.36,446.03 384.18,446.02 C373.65,445.97 372.34,455.55 382.53,458.11 C387.64,459.40 388.70,460.45 386.96,462.54 C385.50,464.30 379.87,464.47 378.20,462.80 C377.27,461.87 376.72,461.88 375.75,462.87 C373.79,464.86 377.56,467.00 383.02,467.00 C386.62,467.00 388.15,466.46 389.92,464.59 ZM 431.17 465.35 C435.06,461.82 432.74,456.30 426.99,455.38 C419.06,454.11 419.15,449.47 427.08,450.23 C432.55,450.76 434.44,448.98 430.37,447.12 C426.62,445.41 422.56,445.77 419.63,448.07 C414.95,451.76 416.82,456.01 424.03,458.06 C429.70,459.68 430.65,460.51 429.04,462.46 C427.58,464.21 423.35,464.46 419.57,463.02 C417.56,462.26 417.00,462.36 417.00,463.48 C417.00,467.01 427.76,468.43 431.17,465.35 ZM 481.00 460.72 C481.00,452.88 482.73,450.00 487.45,450.00 C491.43,450.00 491.93,450.96 492.72,460.25 C493.12,464.98 493.70,467.00 494.65,467.00 C495.65,467.00 496.00,465.27 496.00,460.33 C496.00,452.80 497.61,449.99 501.90,450.02 C506.24,450.04 506.89,451.13 507.20,459.02 C507.45,465.19 507.80,466.54 509.25,466.81 C510.80,467.11 511.00,466.22 511.00,459.03 C511.00,451.74 510.75,450.66 508.55,448.45 C505.73,445.64 502.19,445.33 497.92,447.54 C495.25,448.92 494.73,448.92 492.75,447.54 C490.15,445.71 486.69,445.56 483.73,447.14 C482.13,448.00 481.50,448.00 481.21,447.14 C481.00,446.51 480.20,446.00 479.42,446.00 C478.28,446.00 478.00,448.11 478.00,456.50 C478.00,465.17 478.26,467.00 479.50,467.00 C480.67,467.00 481.00,465.64 481.00,460.72 ZM 534.00 453.50 C534.00,440.67 533.90,440.00 532.00,440.00 C530.10,440.00 530.00,440.67 530.00,453.50 C530.00,466.33 530.10,467.00 532.00,467.00 C533.90,467.00 534.00,466.33 534.00,453.50 ZM 545.00 460.72 C545.00,452.94 546.74,450.00 551.36,450.00 C556.14,450.00 557.00,451.48 557.00,459.70 C557.00,466.33 557.18,467.00 559.00,467.00 C560.83,467.00 561.00,466.33 561.00,459.22 C561.00,453.86 560.52,450.77 559.47,449.26 C557.63,446.63 551.76,445.33 548.46,446.84 C546.96,447.52 545.85,447.57 545.48,446.96 C545.15,446.43 544.23,446.00 543.44,446.00 C542.28,446.00 542.00,448.02 542.00,456.50 C542.00,465.17 542.26,467.00 543.50,467.00 C544.67,467.00 545.00,465.64 545.00,460.72 ZM 617.99 465.04 C620.14,463.39 620.26,463.04 618.82,462.49 C617.91,462.13 616.25,462.33 615.14,462.92 C612.11,464.55 609.88,464.23 607.31,461.83 C600.52,455.44 609.46,445.51 616.79,451.30 C617.68,452.00 618.45,451.95 619.25,451.15 C622.62,447.78 611.13,444.38 606.54,447.38 C600.60,451.27 599.82,458.25 604.67,464.02 C606.72,466.46 607.94,467.00 611.34,466.98 C613.88,466.96 616.47,466.21 617.99,465.04 ZM 636.00 465.50 C636.00,464.57 635.06,464.00 633.52,464.00 C630.55,464.00 629.73,461.64 630.19,454.43 C630.48,449.89 630.71,449.48 633.25,449.18 C636.77,448.78 636.97,446.00 633.48,446.00 C631.70,446.00 630.67,445.26 630.00,443.50 C629.48,442.12 628.58,441.00 628.00,441.00 C627.42,441.00 626.52,442.12 626.00,443.50 C625.48,444.88 624.59,446.00 624.02,446.00 C622.27,446.00 622.90,448.46 625.00,449.77 C626.64,450.79 627.00,452.10 627.00,457.07 C627.00,465.00 628.11,467.00 632.54,467.00 C634.95,467.00 636.00,466.54 636.00,465.50 ZM 646.00 456.50 C646.00,446.67 645.87,446.00 644.00,446.00 C642.13,446.00 642.00,446.67 642.00,456.50 C642.00,466.33 642.13,467.00 644.00,467.00 C645.87,467.00 646.00,466.33 646.00,456.50 ZM 669.20 463.95 C671.95,461.20 672.20,460.44 671.78,456.04 C671.30,451.08 670.16,449.22 666.30,447.16 C661.54,444.61 654.80,446.55 652.42,451.15 C650.60,454.67 650.62,457.37 652.49,460.99 C655.99,467.75 663.98,469.17 669.20,463.95 ZM 681.00 460.33 C681.00,452.54 682.59,450.00 687.46,450.00 C692.13,450.00 693.00,451.52 693.00,459.70 C693.00,466.45 693.16,467.00 695.10,467.00 C697.10,467.00 697.19,466.58 696.85,458.41 C696.54,450.82 696.23,449.60 694.14,447.91 C691.49,445.76 686.94,445.43 683.73,447.14 C682.13,448.00 681.50,448.00 681.21,447.14 C681.00,446.51 680.20,446.00 679.42,446.00 C678.28,446.00 678.00,448.11 678.00,456.50 C678.00,465.17 678.26,467.00 679.50,467.00 C680.68,467.00 681.00,465.59 681.00,460.33 ZM 725.55 465.91 C726.04,465.13 726.53,465.13 727.31,465.91 C730.15,468.75 731.00,467.04 731.00,458.50 C731.00,451.33 730.69,449.69 729.00,448.00 C726.73,445.73 721.51,445.35 717.52,447.17 C714.93,448.35 714.59,450.78 717.10,450.18 C721.73,449.06 724.90,449.18 726.01,450.51 C728.21,453.17 726.42,455.00 721.60,455.00 C716.48,455.00 714.00,456.87 714.00,460.74 C714.00,464.63 716.69,467.00 721.10,467.00 C723.18,467.00 725.18,466.51 725.55,465.91 ZM 742.00 460.07 C742.00,451.77 743.40,449.74 748.83,450.20 C753.01,450.55 753.74,452.14 753.90,461.25 C753.98,465.65 754.35,467.00 755.50,467.00 C756.71,467.00 757.00,465.40 757.00,458.57 C757.00,450.66 756.84,450.02 754.37,448.07 C751.48,445.80 748.52,445.47 744.57,446.98 C742.90,447.61 742.00,447.61 742.00,446.98 C742.00,446.44 741.10,446.00 740.00,446.00 C738.13,446.00 738.00,446.67 738.00,456.50 C738.00,466.33 738.13,467.00 740.00,467.00 C741.81,467.00 742.00,466.33 742.00,460.07 ZM 777.14 465.75 C778.84,464.75 779.35,464.75 779.71,465.75 C779.96,466.44 780.94,467.00 781.89,467.00 C783.45,467.00 783.59,465.71 783.40,453.75 C783.13,436.96 783.26,438.00 781.50,438.00 C780.36,438.00 780.00,439.23 780.00,443.11 C780.00,447.62 779.80,448.12 778.25,447.39 C777.29,446.94 774.54,446.56 772.14,446.56 C768.56,446.56 767.33,447.08 765.28,449.46 C763.16,451.93 762.85,453.10 763.25,457.22 C764.04,465.51 770.67,469.58 777.14,465.75 ZM 806.00 463.11 C806.00,458.88 807.05,458.00 812.12,458.00 C814.55,458.00 815.56,458.80 817.79,462.47 C819.31,464.97 821.27,466.95 822.25,466.97 C824.49,467.01 824.45,466.58 821.85,461.95 L 819.71 458.14 L 822.46 454.87 C824.77,452.12 825.12,450.95 824.67,447.56 C823.84,441.37 821.42,440.00 811.39,440.00 L 803.00 440.00 L 803.00 453.50 C803.00,464.83 803.24,467.00 804.50,467.00 C805.58,467.00 806.00,465.90 806.00,463.11 ZM 845.86 465.38 C847.52,464.22 847.86,463.46 847.08,462.68 C846.31,461.91 845.66,461.94 844.80,462.80 C842.68,464.92 836.31,464.27 834.55,461.77 C833.11,459.71 833.13,459.48 834.74,458.84 C835.71,458.45 839.31,458.11 842.75,458.07 C848.77,458.00 849.00,457.91 849.00,455.43 C849.00,451.80 847.40,449.26 844.02,447.51 C833.34,441.99 824.11,454.36 832.10,463.47 C834.73,466.45 835.86,467.00 839.38,467.00 C841.68,467.00 844.59,466.27 845.86,465.38 ZM 859.00 452.50 C859.00,438.67 858.91,438.00 857.00,438.00 C855.09,438.00 855.00,438.67 855.00,452.50 C855.00,466.33 855.09,467.00 857.00,467.00 C858.91,467.00 859.00,466.33 859.00,452.50 ZM 870.00 456.50 C870.00,446.67 869.87,446.00 868.00,446.00 C866.13,446.00 866.00,446.67 866.00,456.50 C866.00,466.33 866.13,467.00 868.00,467.00 C869.87,467.00 870.00,466.33 870.00,456.50 ZM 893.00 458.35 C893.00,450.68 892.83,450.01 890.37,448.07 C887.33,445.68 881.32,445.32 878.54,447.35 C875.68,449.44 877.41,451.10 881.10,449.82 C883.31,449.05 884.85,449.07 886.65,449.89 C890.33,451.57 889.36,454.43 884.99,454.77 C877.13,455.38 874.13,457.68 875.51,462.03 C876.80,466.10 878.79,466.99 886.06,466.77 L 893.00 466.56 L 893.00 458.35 ZM 904.25 465.75 C904.59,464.76 905.01,464.78 906.26,465.81 C907.19,466.58 909.64,466.99 912.14,466.81 C915.77,466.55 916.80,465.96 918.81,463.00 C921.58,458.91 921.42,452.23 918.48,448.98 C915.94,446.17 910.22,445.34 906.84,447.28 L 904.10 448.85 L 903.80 443.68 C903.57,439.70 903.10,438.44 901.75,438.19 C900.15,437.88 900.00,439.09 900.00,452.43 C900.00,466.12 900.12,467.00 901.92,467.00 C902.97,467.00 904.02,466.44 904.25,465.75 ZM 930.00 456.43 C930.00,446.90 929.83,445.89 928.25,446.19 C926.77,446.47 926.46,447.88 926.21,455.43 C925.89,465.30 926.22,467.00 928.47,467.00 C929.75,467.00 930.00,465.25 930.00,456.43 ZM 941.00 452.50 C941.00,438.67 940.91,438.00 939.00,438.00 C937.10,438.00 937.00,438.67 937.00,451.83 C937.00,459.44 937.30,465.97 937.67,466.33 C938.03,466.70 938.93,467.00 939.67,467.00 C940.72,467.00 941.00,463.92 941.00,452.50 ZM 952.00 456.50 C952.00,446.67 951.87,446.00 950.00,446.00 C948.13,446.00 948.00,446.67 948.00,456.50 C948.00,466.33 948.13,467.00 950.00,467.00 C951.87,467.00 952.00,466.33 952.00,456.50 ZM 1053.00 460.93 C1053.00,453.97 1054.11,451.29 1057.56,449.98 C1058.90,449.47 1060.00,448.36 1060.00,447.52 C1060.00,445.69 1056.89,445.51 1055.16,447.24 C1054.17,448.23 1053.74,448.20 1053.06,447.10 C1052.59,446.33 1051.48,445.99 1050.60,446.32 C1047.78,447.40 1048.76,467.00 1051.63,467.00 C1052.64,467.00 1053.00,465.40 1053.00,460.93 ZM 1079.07 465.96 C1081.57,464.62 1081.74,461.46 1079.25,462.55 C1075.04,464.37 1071.20,464.20 1069.10,462.10 C1066.23,459.23 1066.47,457.96 1069.75,458.54 C1071.26,458.81 1074.75,458.68 1077.50,458.26 C1081.97,457.57 1082.53,457.20 1082.81,454.76 C1083.03,452.91 1082.34,451.25 1080.65,449.56 C1070.65,439.56 1056.77,452.83 1066.10,463.47 C1068.68,466.39 1069.89,467.00 1073.17,467.00 C1075.35,467.00 1078.00,466.53 1079.07,465.96 ZM 1101.01 464.49 C1102.98,462.39 1103.22,461.51 1102.42,459.24 C1101.67,457.10 1100.49,456.26 1097.05,455.43 C1088.65,453.40 1089.25,448.35 1097.75,449.53 C1102.27,450.16 1103.48,448.86 1100.07,447.04 C1095.53,444.61 1088.35,446.76 1087.32,450.84 C1086.84,452.78 1087.31,453.87 1089.46,455.72 C1090.98,457.03 1093.53,458.36 1095.13,458.68 C1098.72,459.39 1099.57,460.61 1097.89,462.63 C1096.60,464.18 1092.43,464.14 1088.75,462.55 C1087.51,462.01 1087.00,462.24 1087.00,463.34 C1087.00,465.57 1089.86,466.93 1094.58,466.97 C1097.66,466.99 1099.23,466.39 1101.01,464.49 ZM 1121.17 465.35 C1124.10,462.70 1123.54,458.33 1120.05,456.53 C1118.43,455.69 1116.27,455.00 1115.25,455.00 C1113.10,455.00 1111.00,453.17 1111.00,451.30 C1111.00,450.39 1112.65,450.00 1116.50,450.00 C1122.14,450.00 1123.49,448.87 1120.07,447.04 C1116.79,445.28 1112.28,445.85 1109.33,448.40 C1106.88,450.50 1106.66,451.14 1107.54,453.65 C1108.32,455.88 1109.61,456.84 1113.52,458.08 C1117.21,459.25 1118.50,460.16 1118.50,461.58 C1118.50,463.16 1117.80,463.49 1114.50,463.44 C1112.30,463.40 1109.71,463.02 1108.75,462.58 C1107.49,462.01 1107.00,462.22 1107.00,463.34 C1107.00,464.20 1107.79,465.36 1108.75,465.92 C1111.56,467.56 1119.11,467.21 1121.17,465.35 ZM 1149.00 462.65 C1149.00,460.26 1149.29,454.88 1149.64,450.70 L 1150.28 443.10 L 1154.31 442.80 C1156.53,442.64 1158.53,441.94 1158.76,441.25 C1159.07,440.30 1156.50,440.00 1148.08,440.00 C1138.90,440.00 1137.00,440.26 1137.00,441.50 C1137.00,442.61 1138.17,443.00 1141.50,443.00 L 1146.00 443.00 L 1146.00 455.00 C1146.00,465.00 1146.25,467.00 1147.50,467.00 C1148.60,467.00 1149.00,465.85 1149.00,462.65 ZM 1174.41 465.10 C1176.61,462.66 1175.13,461.75 1171.32,463.18 C1167.61,464.59 1163.39,463.59 1161.99,460.99 C1161.00,459.13 1161.25,459.00 1165.71,458.99 C1174.58,458.97 1178.00,458.00 1178.00,455.50 C1178.00,452.49 1174.75,448.55 1170.98,446.99 C1166.27,445.04 1160.40,447.10 1158.33,451.44 C1156.30,455.69 1157.24,461.33 1160.52,464.61 C1163.65,467.74 1171.77,468.02 1174.41,465.10 ZM 1196.19 463.95 C1197.33,462.43 1197.82,460.70 1197.42,459.66 C1196.65,457.65 1191.97,455.00 1189.17,455.00 C1186.88,455.00 1184.56,452.52 1185.47,451.04 C1185.83,450.47 1188.34,450.00 1191.06,450.00 C1194.60,450.00 1196.00,449.61 1196.00,448.62 C1196.00,447.12 1193.04,446.04 1188.88,446.01 C1185.64,446.00 1181.00,449.52 1181.00,452.00 C1181.00,454.49 1185.16,457.62 1189.55,458.44 C1192.50,459.00 1193.07,459.50 1192.81,461.31 C1192.57,462.99 1191.71,463.58 1189.12,463.82 C1187.27,464.00 1185.26,463.66 1184.67,463.07 C1183.13,461.53 1181.00,461.75 1181.00,463.45 C1181.00,465.78 1184.13,467.01 1189.40,466.74 C1193.33,466.55 1194.67,465.99 1196.19,463.95 ZM 1213.76 465.25 C1214.01,464.48 1213.24,464.00 1211.78,464.00 C1208.10,464.00 1207.00,462.10 1207.00,455.77 C1207.00,450.10 1207.08,449.93 1210.00,449.35 C1213.64,448.62 1214.04,446.00 1210.52,446.00 C1208.71,446.00 1207.87,445.33 1207.41,443.50 C1206.69,440.62 1204.23,440.17 1203.32,442.75 C1202.98,443.71 1202.05,445.26 1201.25,446.18 C1199.98,447.67 1200.05,448.02 1201.91,449.17 C1203.67,450.28 1204.00,451.47 1204.00,456.81 C1204.00,465.26 1205.11,467.20 1209.74,466.81 C1211.72,466.64 1213.53,465.94 1213.76,465.25 ZM 334.81 439.74 C335.04,438.58 334.51,438.00 333.24,438.00 C330.79,438.00 330.00,438.83 330.69,440.65 C331.44,442.58 334.39,441.93 334.81,439.74 ZM 571.82 439.67 C572.04,438.54 571.47,438.00 570.07,438.00 C568.93,438.00 568.00,438.60 568.00,439.33 C568.00,442.40 571.24,442.68 571.82,439.67 ZM 645.82 439.67 C646.04,438.54 645.47,438.00 644.07,438.00 C642.93,438.00 642.00,438.60 642.00,439.33 C642.00,442.40 645.24,442.68 645.82,439.67 ZM 870.00 440.00 C870.00,438.67 869.33,438.00 868.00,438.00 C866.07,438.00 865.29,439.96 866.67,441.33 C868.04,442.71 870.00,441.93 870.00,440.00 ZM 929.82 439.67 C930.01,438.70 929.51,438.00 928.63,438.00 C926.77,438.00 925.65,439.63 926.53,441.05 C927.44,442.52 929.43,441.68 929.82,439.67 ZM 952.00 440.00 C952.00,438.67 951.33,438.00 950.00,438.00 C948.07,438.00 947.29,439.96 948.67,441.33 C950.04,442.71 952.00,441.93 952.00,440.00 ZM 649.77 370.75 L 650.04 351.00 L 459.52 351.00 L 269.00 351.00 L 269.00 370.33 C269.00,380.97 269.30,389.97 269.67,390.34 C270.04,390.70 355.65,390.89 459.92,390.75 L 649.50 390.50 L 649.77 370.75 ZM 1235.81 372.60 C1236.02,369.35 1235.68,367.41 1234.81,366.86 C1233.09,365.76 711.26,365.77 710.58,366.87 C710.30,367.33 710.33,370.03 710.67,372.86 L 711.28 378.00 L 973.39 377.75 L 1235.50 377.50 L 1235.81 372.60 ZM 1082.00 334.46 C1085.57,333.63 1089.96,332.28 1091.75,331.47 C1093.54,330.66 1096.64,329.24 1098.64,328.32 C1103.99,325.85 1112.44,317.13 1115.51,310.92 C1119.05,303.73 1120.02,291.00 1117.63,282.81 C1115.42,275.18 1108.88,268.09 1099.11,262.71 C1091.34,258.42 1080.04,254.07 1076.57,254.03 C1074.71,254.00 1069.66,252.59 1065.50,250.92 C1064.40,250.49 1062.38,249.84 1061.00,249.50 C1051.63,247.14 1046.00,241.15 1046.00,233.51 C1046.00,229.61 1046.52,228.48 1049.87,225.13 C1052.75,222.25 1054.86,221.10 1058.17,220.60 C1063.38,219.82 1078.32,221.34 1082.56,223.07 C1089.00,225.72 1091.74,226.89 1097.28,229.39 C1100.46,230.83 1103.39,232.00 1103.78,232.00 C1104.81,232.00 1112.85,218.43 1113.60,215.45 C1114.83,210.57 1110.35,207.36 1093.50,201.03 C1077.80,195.13 1054.43,195.06 1041.59,200.89 C1034.25,204.21 1026.51,210.96 1022.12,217.85 C1019.53,221.91 1019.15,223.46 1019.10,230.00 C1019.02,239.51 1020.67,249.23 1023.34,255.00 C1025.98,260.70 1034.43,269.15 1039.00,270.65 C1044.20,272.36 1052.61,274.66 1060.50,276.54 C1069.33,278.65 1081.73,282.90 1085.00,284.94 C1091.06,288.73 1092.00,290.14 1092.00,295.45 C1092.00,299.70 1091.47,301.19 1088.82,304.40 C1084.31,309.87 1079.12,311.95 1069.92,311.98 C1060.99,312.00 1052.61,309.58 1043.00,304.19 C1032.60,298.35 1026.94,295.81 1025.54,296.34 C1024.83,296.62 1021.96,300.09 1019.17,304.05 C1014.37,310.86 1014.16,311.41 1015.45,313.88 C1019.09,320.83 1033.21,328.71 1050.00,333.14 C1062.13,336.35 1072.12,336.76 1082.00,334.46 ZM 999.25 332.38 C1000.21,332.10 1001.00,331.27 1001.00,330.55 C1001.00,329.83 996.24,322.77 990.42,314.87 C978.78,299.07 968.55,284.06 969.13,283.64 C969.33,283.49 971.53,282.74 974.00,281.98 C980.68,279.91 990.97,269.36 993.98,261.50 C997.10,253.37 997.96,235.95 995.63,228.11 C991.55,214.41 985.52,208.79 966.63,201.10 C961.82,199.14 938.78,197.90 913.00,198.21 L 888.50 198.50 L 888.50 265.00 L 888.50 331.50 L 900.92 331.78 C910.19,331.99 913.55,331.74 914.16,330.78 C914.60,330.08 914.98,320.16 914.98,308.75 L 915.00 288.00 L 923.25 288.06 C935.08,288.15 940.75,289.28 943.47,292.10 C944.74,293.42 947.89,298.54 950.46,303.49 C953.04,308.43 955.80,313.15 956.59,313.99 C957.38,314.82 959.68,317.98 961.70,321.00 C963.72,324.02 965.86,326.95 966.47,327.50 C970.68,331.35 972.45,332.41 975.75,333.10 C979.46,333.87 995.87,333.37 999.25,332.38 ZM 1193.76 277.25 L 1194.02 221.00 L 1215.04 221.00 L 1236.07 221.00 L 1235.78 209.75 L 1235.50 198.50 L 1181.00 198.50 L 1126.50 198.50 L 1125.94 205.00 C1125.64,208.57 1125.64,213.98 1125.94,217.00 L 1126.50 222.50 L 1146.75 222.77 L 1167.00 223.04 L 1167.00 277.85 C1167.00,308.00 1167.31,332.98 1167.70,333.36 C1168.08,333.74 1174.04,333.93 1180.95,333.78 L 1193.50 333.50 L 1193.76 277.25 ZM 736.77 305.76 L 737.03 280.03 L 769.27 279.76 L 801.50 279.50 L 801.79 269.58 C802.00,262.32 801.73,259.45 800.79,258.85 C800.08,258.40 785.89,258.02 769.25,258.02 L 739.00 258.00 L 739.00 240.51 L 739.00 223.03 L 773.25 222.76 L 807.50 222.50 L 807.50 210.50 L 807.50 198.50 L 760.00 198.50 L 712.50 198.50 L 712.24 265.28 L 711.99 332.06 L 724.24 331.78 L 736.50 331.50 L 736.77 305.76 ZM 855.11 330.25 C855.64,321.91 855.76,254.11 855.30,229.22 L 854.71 197.94 L 842.11 198.22 L 829.50 198.50 L 829.24 265.25 L 828.99 332.00 L 841.99 332.00 C853.67,332.00 855.01,331.82 855.11,330.25 ZM 447.77 290.25 L 448.04 271.00 L 358.02 271.00 L 268.00 271.00 L 268.00 290.51 L 268.00 310.01 L 357.75 309.76 L 447.50 309.50 L 447.77 290.25 ZM 650.78 292.00 C650.94,282.38 650.82,273.49 650.52,272.25 L 649.96 270.00 L 566.60 270.00 L 483.24 270.00 L 482.59 279.25 C482.23,284.34 482.18,293.23 482.47,299.00 C482.76,304.77 483.00,309.62 483.00,309.76 C483.00,309.90 520.69,309.90 566.75,309.76 L 650.50 309.50 L 650.78 292.00 ZM 649.50 209.00 L 649.50 189.50 L 459.25 189.25 L 269.00 188.99 L 269.00 208.33 C269.00,218.97 269.30,227.97 269.67,228.34 C270.04,228.70 355.65,228.89 459.92,228.75 L 649.50 228.50 L 649.50 209.00 ZM 457.36 462.50 C456.18,459.42 457.79,458.00 462.47,458.00 C466.31,458.00 467.00,458.30 467.00,459.96 C467.00,463.54 458.61,465.75 457.36,462.50 ZM 582.17 453.34 C582.36,452.36 583.75,450.88 585.26,450.03 C587.72,448.65 588.28,448.66 590.75,450.04 C595.43,452.66 594.27,454.46 587.67,454.80 C582.54,455.07 581.87,454.89 582.17,453.34 ZM 355.55 454.08 C354.53,452.44 358.06,450.00 361.45,450.00 C364.89,450.00 367.64,452.15 366.53,453.96 C365.73,455.24 356.33,455.35 355.55,454.08 ZM 656.56 461.78 C652.99,456.68 656.10,449.00 661.73,449.00 C664.79,449.00 669.00,453.24 669.00,456.31 C669.00,462.51 659.88,466.52 656.56,461.78 ZM 718.08 462.15 C716.69,459.55 718.58,458.00 723.14,458.00 C727.64,458.00 728.81,459.44 726.44,462.06 C724.19,464.55 719.39,464.60 718.08,462.15 ZM 768.63 462.14 C766.53,459.82 766.20,453.36 768.09,451.52 C770.98,448.69 774.72,448.62 777.45,451.36 C780.67,454.58 780.71,458.38 777.55,461.55 C774.63,464.46 770.95,464.71 768.63,462.14 ZM 806.78 450.25 C806.17,443.40 806.49,443.00 812.54,443.00 C820.37,443.00 823.34,447.21 819.44,452.78 C818.16,454.60 816.93,455.00 812.54,455.00 L 807.20 455.00 L 806.78 450.25 ZM 833.00 453.70 C833.00,451.40 835.30,450.00 839.08,450.00 C842.83,450.00 845.69,452.08 844.53,453.96 C843.55,455.54 833.00,455.30 833.00,453.70 ZM 880.01 462.51 C877.77,459.82 879.57,458.00 884.47,458.00 C889.44,458.00 890.35,459.47 887.17,462.35 C884.90,464.40 881.64,464.48 880.01,462.51 ZM 906.10 461.61 C903.08,458.39 903.55,453.41 907.13,450.74 C911.76,447.30 917.00,450.60 917.00,456.96 C917.00,459.91 916.44,461.14 914.54,462.38 C911.12,464.63 908.73,464.41 906.10,461.61 ZM 1067.00 453.62 C1067.00,450.09 1073.80,448.21 1077.06,450.84 C1080.35,453.51 1078.70,455.00 1072.44,455.00 C1068.49,455.00 1067.00,454.62 1067.00,453.62 ZM 1161.17 453.34 C1161.36,452.36 1162.69,450.91 1164.12,450.11 C1166.32,448.87 1167.22,448.85 1169.91,449.96 C1175.15,452.13 1173.60,454.44 1166.66,454.80 C1161.54,455.07 1160.87,454.89 1161.17,453.34 ZM 925.75 266.30 L 915.00 265.93 L 915.00 243.34 L 915.00 220.74 L 934.30 221.18 C953.38,221.62 953.68,221.66 960.23,224.73 C968.90,228.78 970.33,231.40 970.23,242.99 C970.13,254.85 968.06,258.40 958.38,263.31 C952.85,266.11 943.95,266.93 925.75,266.30 Z" fill="rgb(252,252,252)"/>
</g>
</svg>