<?xml version="1.0" encoding="UTF-8"?>
<svg version="1.1" xmlns="http://www.w3.org/2000/svg" width="1024" height="1024">
<path d="M0 0 C337.92 0 675.84 0 1024 0 C1024 337.92 1024 675.84 1024 1024 C686.08 1024 348.16 1024 0 1024 C0 686.08 0 348.16 0 0 Z " fill="#FDFEFE" transform="translate(0,0)"/>
<path d="M0 0 C82.5 0 165 0 250 0 C250 8.25 250 16.5 250 25 C167.5 25 85 25 0 25 C0 16.75 0 8.5 0 0 Z " fill="#434546" transform="translate(202,555)"/>
<path d="M0 0 C82.5 0 165 0 250 0 C250 8.25 250 16.5 250 25 C167.5 25 85 25 0 25 C0 16.75 0 8.5 0 0 Z " fill="#424646" transform="translate(202,453)"/>
<path d="M0 0 C7.05375 -0.061875 14.1075 -0.12375 21.375 -0.1875 C23.58106934 -0.21481201 25.78713867 -0.24212402 28.06005859 -0.27026367 C29.83951269 -0.27903841 31.61897288 -0.28668 33.3984375 -0.29296875 C34.29731689 -0.30831665 35.19619629 -0.32366455 36.12231445 -0.33947754 C44.86845804 -0.34303192 53.09810234 1.35299282 60 7 C65.3829648 12.42178425 68.2176608 16.84029051 68.3293457 24.72314453 C68.32378662 25.41263184 68.31822754 26.10211914 68.3125 26.8125 C68.30512817 27.88153564 68.30512817 27.88153564 68.29760742 28.97216797 C68.1099861 37.37952729 66.06234179 42.93765821 60 49 C56.76374064 51.29532051 54.07468217 53 50 53 C54.67309784 60.86779746 59.99123644 68.06312148 65.64331055 75.24780273 C66.19156494 75.94977783 66.73981934 76.65175293 67.3046875 77.375 C67.79952637 78.00148438 68.29436523 78.62796875 68.80419922 79.2734375 C70 81 70 81 71 84 C64.67762665 85.01184427 58.21555566 85.96952262 52 84 C45.57360949 79.07001305 41.9054281 70.75780483 38.31640625 63.6796875 C36.70753592 60.81297309 35.64133572 58.97644776 33 57 C27.36123127 55.5606152 21.8104211 55.90991595 16 56 C16 65.24 16 74.48 16 84 C10.72 84 5.44 84 0 84 C0 56.28 0 28.56 0 0 Z " fill="#46494A" transform="translate(603,459)"/>
<path d="M0 0 C0.92039062 0.38671875 1.84078125 0.7734375 2.7890625 1.171875 C9.62935279 4.29335958 9.62935279 4.29335958 10.9609375 6.83203125 C11.01740206 9.96581421 9.74410761 11.64179227 8.0625 14.25 C7.49660156 15.14203125 6.93070313 16.0340625 6.34765625 16.953125 C5.68056641 17.96632813 5.68056641 17.96632813 5 19 C2.34689287 17.95631448 -0.2730597 16.87756834 -2.875 15.7109375 C-10.45255751 12.47153166 -17.73570782 10.37184461 -26 12 C-28.92241968 13.80988474 -30.65133184 14.89361165 -31.69921875 18.21875 C-31.69341797 19.34796875 -31.69341797 19.34796875 -31.6875 20.5 C-31.71199219 21.2528125 -31.73648438 22.005625 -31.76171875 22.78125 C-30.82384595 25.51310514 -29.46063313 26.59052467 -27.01293945 28.05761719 C-21.86628782 30.4670866 -16.23078512 31.70697159 -10.76171875 33.1796875 C-0.73535402 36.03304031 7.60704405 39.77978499 13 49 C15.12388951 55.37166854 14.52702943 62.79283063 12 69 C7.66528393 77.15411624 0.78647004 80.6764521 -7.8125 83.3125 C-22.45925205 86.34184832 -35.04639865 82.11865509 -47.63671875 74.78125 C-50 73 -50 73 -52 69 C-48.535 64.05 -48.535 64.05 -45 59 C-41.03351487 59.99162128 -39.01642629 61.17270008 -35.6875 63.4375 C-27.70629357 68.57579649 -20.45908765 70.08891023 -11 69 C-7.22759737 67.5301387 -5.25226619 65.37839929 -3 62 C-2.33278464 59.08559301 -2.33278464 59.08559301 -3 56 C-8.01813323 50.58075748 -13.74604811 49.3306967 -20.75 47.5625 C-40.12082339 42.67148786 -40.12082339 42.67148786 -45.5625 34.8125 C-48.98154677 28.12306066 -48.98232103 20.36460108 -48 13 C-45.60820379 6.11767732 -40.61640925 2.59227067 -34.46484375 -0.90625 C-24.52189154 -5.31833656 -9.84281587 -4.23274676 0 0 Z " fill="#474B4B" transform="translate(734,461)"/>
<path d="M0 0 C37.62 0 75.24 0 114 0 C114 8.25 114 16.5 114 25 C76.38 25 38.76 25 0 25 C0 16.75 0 8.5 0 0 Z " fill="#444746" transform="translate(338,504)"/>
<path d="M0 0 C37.62 0 75.24 0 114 0 C114 8.25 114 16.5 114 25 C76.38 25 38.76 25 0 25 C0 16.75 0 8.5 0 0 Z " fill="#434646" transform="translate(201,504)"/>
<path d="M0 0 C19.8 0 39.6 0 60 0 C60 4.95 60 9.9 60 15 C45.48 15 30.96 15 16 15 C16 22.59 16 30.18 16 38 C29.2 38 42.4 38 56 38 C56 42.29 56 46.58 56 51 C42.47 51 28.94 51 15 51 C15 61.89 15 72.78 15 84 C10.05 84 5.1 84 0 84 C0 56.28 0 28.56 0 0 Z " fill="#464949" transform="translate(492,459)"/>
<path d="M0 0 C109.56 0 219.12 0 332 0 C332 2.31 332 4.62 332 7 C222.44 7 112.88 7 0 7 C0 4.69 0 2.38 0 0 Z " fill="#62AEA7" transform="translate(490,565)"/>
<path d="M0 0 C22.77 0 45.54 0 69 0 C69 4.62 69 9.24 69 14 C60.09 14 51.18 14 42 14 C42 37.43 42 60.86 42 85 C36.72 85 31.44 85 26 85 C26 61.9 26 38.8 26 15 C17.42 15 8.84 15 0 15 C0 10.05 0 5.1 0 0 Z " fill="#4A4E4E" transform="translate(753,459)"/>
<path d="M0 0 C5.28 0 10.56 0 16 0 C16 27.72 16 55.44 16 84 C10.72 84 5.44 84 0 84 C0 56.28 0 28.56 0 0 Z " fill="#464949" transform="translate(566,459)"/>
<path d="M0 0 C5.6615625 -0.12375 5.6615625 -0.12375 11.4375 -0.25 C12.60853271 -0.28641602 13.77956543 -0.32283203 14.98608398 -0.36035156 C21.78869797 -0.43173382 27.15248514 0.36760305 33 4 C36.00526058 7.09632908 36.20815876 9.83514835 36.375 14 C36.2142154 18.17421566 35.90570421 20.82188602 33 24 C26.49731725 29.6642463 20.31178985 29.61951891 12 29.3125 C6.06 29.1578125 6.06 29.1578125 0 29 C0 19.43 0 9.86 0 0 Z " fill="#F7F8F7" transform="translate(619,473)"/>
<path d="M0 0 C7.59 0 15.18 0 23 0 C23 0.33 23 0.66 23 1 C16.4 1.33 9.8 1.66 3 2 C2.67 2.66 2.34 3.32 2 4 C2.66 4.33 3.32 4.66 4 5 C2.68 5 1.36 5 0 5 C0 3.35 0 1.7 0 0 Z " fill="#4EA89F" transform="translate(491,566)"/>
</svg>
